<svg width="214" height="230" viewBox="0 0 214 230" fill="none" xmlns="http://www.w3.org/2000/svg">
<g clip-path="url(#clip0_1_126)">
<mask id="mask0_1_126" style="mask-type:luminance" maskUnits="userSpaceOnUse" x="-22" y="0" width="236" height="236">
<path d="M-21.1512 0H213.971V235.368H-21.1512V0Z" fill="white"/>
</mask>
<g mask="url(#mask0_1_126)">
<mask id="mask1_1_126" style="mask-type:luminance" maskUnits="userSpaceOnUse" x="64" y="57" width="86" height="86">
<path d="M64.324 57.6926H149.027V142.484H64.324V57.6926Z" fill="white"/>
</mask>
<g mask="url(#mask1_1_126)">
<g opacity="0.559998">
<path d="M149.027 100.089C149.027 123.503 130.066 142.484 106.675 142.484C83.2854 142.484 64.324 123.503 64.324 100.089C64.324 76.6739 83.2854 57.6926 106.675 57.6926C130.066 57.6926 149.027 76.6739 149.027 100.089Z" fill="url(#paint0_radial_1_126)"/>
</g>
</g>
<mask id="mask2_1_126" style="mask-type:luminance" maskUnits="userSpaceOnUse" x="13" y="167" width="175" height="8">
<path d="M13.9117 167.469H187.216V174.566H13.9117V167.469Z" fill="white"/>
</mask>
<g mask="url(#mask2_1_126)">
<g opacity="0.529999">
<path d="M13.9117 167.469H187.216L104.439 174.566L13.9117 167.469Z" fill="#2D2D2D"/>
</g>
</g>
</g>
<mask id="mask3_1_126" style="mask-type:luminance" maskUnits="userSpaceOnUse" x="13" y="156" width="175" height="7">
<path d="M13.9117 162.97H187.216L166.599 156.893H31.5487L13.9117 162.97Z" fill="white"/>
</mask>
<g mask="url(#mask3_1_126)">
<mask id="mask4_1_126" style="mask-type:luminance" maskUnits="userSpaceOnUse" x="-18141" y="-17903" width="36240" height="36278">
<path d="M-18140.9 -17902.8H18098.1V18374.1H-18140.9V-17902.8Z" fill="url(#paint1_linear_1_126)"/>
</mask>
<g mask="url(#mask4_1_126)">
<path d="M13.9121 162.969H187.217L166.6 156.893H31.5491L13.9121 162.969Z" fill="url(#paint2_linear_1_126)"/>
</g>
</g>
<path d="M49.3386 137.49L38.6292 97.8567" stroke="#191818" stroke-width="4" stroke-miterlimit="10"/>
<path d="M53.0094 137.49L42.3484 97.8567" stroke="url(#paint3_linear_1_126)" stroke-width="4" stroke-miterlimit="10"/>
<path d="M88.6964 51.3527L40.757 96.0121" stroke="url(#paint4_linear_1_126)" stroke-width="4" stroke-miterlimit="10"/>
<path d="M89.2998 53.5979L43.8936 96.4568" stroke="url(#paint5_linear_1_126)" stroke-width="4" stroke-miterlimit="10"/>
<mask id="mask5_1_126" style="mask-type:luminance" maskUnits="userSpaceOnUse" x="-22" y="0" width="236" height="236">
<path d="M-21.1512 0H213.971V235.368H-21.1512V0Z" fill="white"/>
</mask>
<g mask="url(#mask5_1_126)">
<path d="M45.2523 97.8567C45.2523 100.342 43.2392 102.357 40.757 102.357C38.2742 102.357 36.2619 100.342 36.2619 97.8567C36.2619 95.3711 38.2742 93.3568 40.757 93.3568C43.2392 93.3568 45.2523 95.3711 45.2523 97.8567Z" fill="#2D3030"/>
<path d="M42.3479 97.9808C42.3479 99.0088 41.5152 99.8424 40.4884 99.8424C39.4616 99.8424 38.6288 99.0088 38.6288 97.9808C38.6288 96.9529 39.4616 96.1192 40.4884 96.1192C41.5152 96.1192 42.3479 96.9529 42.3479 97.9808Z" fill="black"/>
<path d="M111.888 91.3694C111.888 95.325 109.473 98.5322 106.495 98.5322C103.516 98.5322 101.101 95.325 101.101 91.3694C101.101 87.4137 103.516 84.2062 106.495 84.2062C109.473 84.2062 111.888 87.4137 111.888 91.3694Z" fill="#EEEAC5"/>
<path d="M106.676 53.3106V61.043" stroke="#333333" stroke-width="4" stroke-miterlimit="10"/>
<path d="M102.206 64.4714C102.21 64.0396 102.278 62.2885 103.625 61.0235C105.302 59.4471 108.108 59.4297 109.521 60.6681C110.407 61.4436 110.842 62.7966 110.906 62.9992C111.056 63.48 111.118 63.8993 111.146 64.1982L102.234 64.8496L102.206 64.4714Z" fill="#313130"/>
</g>
<path d="M100.952 72.3562C99.7074 75.8456 97.8341 80.1326 94.9729 84.6931C92.37 88.8431 89.6266 92.1411 87.2311 94.657H127.045C124.621 92.0548 121.912 88.7518 119.304 84.6931C116.406 80.1828 114.397 75.9253 112.992 72.3562H100.952Z" fill="url(#paint6_linear_1_126)"/>
<path d="M100.346 72.9096H113.75V69.423H100.346V72.9096Z" fill="url(#paint7_linear_1_126)"/>
<path d="M102.461 63.6614H101.179V69.4231H112.992V63.6614H102.461Z" fill="url(#paint8_linear_1_126)"/>
<mask id="mask6_1_126" style="mask-type:luminance" maskUnits="userSpaceOnUse" x="-22" y="0" width="236" height="236">
<path d="M-21.1512 0H213.971V235.368H-21.1512V0Z" fill="white"/>
</mask>
<g mask="url(#mask6_1_126)">
<path d="M106.676 52.7132C105.755 53.8084 103.48 56.1976 99.9094 57.0441C97.3779 57.6441 95.354 57.1928 94.7564 57.0441C91.7799 56.3002 89.8506 54.4589 89.0302 53.5738" stroke="url(#paint9_linear_1_126)" stroke-width="4" stroke-miterlimit="10"/>
<path d="M107.654 53.3106C107.654 53.8511 107.216 54.2904 106.675 54.2904C106.135 54.2904 105.697 53.8511 105.697 53.3106C105.697 52.7696 106.135 52.3308 106.675 52.3308C107.216 52.3308 107.654 52.7696 107.654 53.3106Z" fill="#191818"/>
<path d="M87.3746 50.2322L90.6858 51.7957L89.0302 56.389L87.3746 50.2322Z" fill="#222323"/>
</g>
<path d="M47.7913 137.06L43.9326 142.186V147.313H44.6663V150.615H49.4473V147.834L54.8222 140.014V137.06H47.7913Z" fill="url(#paint10_linear_1_126)"/>
<mask id="mask7_1_126" style="mask-type:luminance" maskUnits="userSpaceOnUse" x="-22" y="0" width="236" height="236">
<path d="M-21.1512 0H213.971V235.368H-21.1512V0Z" fill="white"/>
</mask>
<g mask="url(#mask7_1_126)">
<path d="M49.9914 154.29H43.5934V150.202H49.9914V154.29Z" fill="#1E1E1B"/>
</g>
<path d="M35.9404 153.238C35.4704 153.441 34.971 153.68 34.454 153.963C33.5328 154.469 32.7498 155.008 32.0995 155.519L30.9277 156.757H64.6508C64.2763 156.257 63.7666 155.68 63.0885 155.128C61.5984 153.916 60.0531 153.441 59.1171 153.238H35.9404Z" fill="url(#paint11_linear_1_126)"/>
<path d="M30.9277 160.146H64.6512V156.757H30.9277V160.146Z" fill="url(#paint12_linear_1_126)"/>
<path d="M67.4316 122.635C67.4316 122.694 67.4137 122.747 67.3781 122.795C67.3428 122.836 67.2806 122.872 67.1919 122.901C67.1031 122.931 66.9816 122.952 66.8277 122.964C66.6801 122.981 66.4934 122.99 66.2687 122.99C66.0439 122.99 65.8543 122.981 65.7005 122.964C65.5524 122.952 65.4342 122.931 65.3455 122.901C65.2567 122.872 65.1916 122.836 65.1501 122.795C65.1149 122.747 65.0971 122.694 65.0971 122.635V113.385H60.8187V122.635C60.8187 122.694 60.798 122.747 60.7565 122.795C60.7208 122.836 60.6586 122.872 60.5699 122.901C60.4811 122.931 60.3629 122.952 60.2149 122.964C60.0672 122.981 59.8777 122.99 59.6471 122.99C59.4219 122.99 59.2328 122.981 59.0789 122.964C58.9309 122.952 58.8127 122.931 58.7239 122.901C58.6352 122.872 58.573 122.836 58.5373 122.795C58.502 122.747 58.4842 122.694 58.4842 122.635V112.176C58.4842 111.928 58.5464 111.744 58.6704 111.626C58.7948 111.501 58.9603 111.439 59.1677 111.439H66.7568C66.97 111.439 67.1354 111.501 67.2541 111.626C67.3723 111.744 67.4316 111.928 67.4316 112.176V122.635ZM77.7989 114.931C77.7989 115.577 77.6982 116.148 77.497 116.646C77.2959 117.143 77.0031 117.564 76.6182 117.908C76.2338 118.245 75.7606 118.503 75.1982 118.681C74.642 118.859 73.9851 118.947 73.2278 118.947H72.269V122.617C72.269 122.676 72.2482 122.73 72.2067 122.777C72.1715 122.824 72.1093 122.863 72.0205 122.892C71.9318 122.922 71.8132 122.946 71.6655 122.964C71.5175 122.981 71.3279 122.99 71.0973 122.99C70.8726 122.99 70.683 122.981 70.5292 122.964C70.3811 122.946 70.2629 122.922 70.1742 122.892C70.0854 122.863 70.0232 122.824 69.9879 122.777C69.9523 122.73 69.9344 122.676 69.9344 122.617V112.274C69.9344 111.996 70.0054 111.788 70.1476 111.652C70.2957 111.51 70.4877 111.439 70.7245 111.439H73.4319C73.7039 111.439 73.9615 111.451 74.2041 111.474C74.4525 111.492 74.7486 111.537 75.0916 111.608C75.435 111.673 75.7809 111.797 76.1301 111.981C76.4851 112.164 76.787 112.399 77.0354 112.683C77.2843 112.961 77.4734 113.29 77.6036 113.669C77.7338 114.042 77.7989 114.463 77.7989 114.931ZM75.3579 115.1C75.3579 114.697 75.2869 114.365 75.1451 114.104C75.0028 113.844 74.8282 113.652 74.6213 113.527C74.4139 113.402 74.195 113.326 73.9644 113.296C73.7396 113.26 73.5057 113.243 73.2631 113.243H72.269V117.143H73.3166C73.6894 117.143 74 117.093 74.2485 116.992C74.5027 116.892 74.71 116.752 74.8697 116.575C75.0294 116.391 75.1509 116.175 75.2339 115.926C75.3164 115.671 75.3579 115.396 75.3579 115.1ZM89.9418 117.055C89.9418 118.008 89.8232 118.861 89.5868 119.614C89.35 120.366 88.9979 121.006 88.5305 121.533C88.0631 122.054 87.4829 122.454 86.7907 122.732C86.1043 123.005 85.3084 123.141 84.4031 123.141C83.5094 123.141 82.7284 123.026 82.0595 122.795C81.3967 122.558 80.8435 122.199 80.3997 121.719C79.9559 121.24 79.6217 120.63 79.3965 119.889C79.1779 119.149 79.0684 118.272 79.0684 117.259C79.0684 116.329 79.1866 115.494 79.4234 114.753C79.6598 114.007 80.0119 113.373 80.4798 112.852C80.9472 112.331 81.524 111.931 82.2104 111.652C82.903 111.374 83.7047 111.234 84.6158 111.234C85.4859 111.234 86.2519 111.35 86.9151 111.581C87.5836 111.812 88.1398 112.167 88.5836 112.647C89.0335 113.127 89.3707 113.734 89.5955 114.469C89.8265 115.198 89.9418 116.06 89.9418 117.055ZM87.492 117.179C87.492 116.575 87.4447 116.027 87.3497 115.535C87.2552 115.037 87.0926 114.614 86.8616 114.264C86.6368 113.909 86.3349 113.637 85.9562 113.447C85.5776 113.252 85.104 113.154 84.5362 113.154C83.9622 113.154 83.4828 113.263 83.0979 113.483C82.7135 113.696 82.4028 113.983 82.166 114.344C81.9292 114.706 81.7608 115.13 81.6601 115.615C81.5655 116.095 81.5182 116.604 81.5182 117.143C81.5182 117.771 81.5655 118.337 81.6601 118.841C81.7546 119.338 81.9147 119.765 82.1395 120.12C82.3643 120.476 82.6662 120.748 83.0449 120.938C83.4235 121.121 83.9 121.213 84.474 121.213C85.048 121.213 85.5274 121.107 85.9119 120.893C86.2963 120.68 86.6074 120.39 86.8438 120.022C87.0806 119.655 87.2465 119.228 87.341 118.743C87.4414 118.251 87.492 117.73 87.492 117.179ZM98.7203 122.022C98.7203 122.194 98.7116 122.338 98.6938 122.457C98.6818 122.57 98.661 122.661 98.6316 122.732C98.6022 122.803 98.5636 122.857 98.5163 122.892C98.4748 122.922 98.4276 122.937 98.3741 122.937H92.6048C92.4094 122.937 92.2435 122.881 92.1075 122.768C91.9773 122.649 91.9122 122.46 91.9122 122.199V112.176C91.9122 111.916 91.9773 111.729 92.1075 111.616C92.2435 111.498 92.4094 111.439 92.6048 111.439H98.3388C98.3919 111.439 98.4392 111.454 98.4806 111.483C98.5221 111.513 98.5578 111.566 98.5872 111.643C98.6167 111.714 98.6374 111.809 98.6494 111.928C98.6673 112.04 98.676 112.185 98.676 112.363C98.676 112.529 98.6673 112.671 98.6494 112.79C98.6374 112.902 98.6167 112.994 98.5872 113.065C98.5578 113.136 98.5221 113.189 98.4806 113.225C98.4392 113.255 98.3919 113.269 98.3388 113.269H94.238V116.077H97.7084C97.7619 116.077 97.8092 116.095 97.8507 116.13C97.8979 116.16 97.9365 116.211 97.966 116.282C97.9954 116.347 98.0161 116.439 98.0282 116.557C98.0456 116.669 98.0547 116.809 98.0547 116.975C98.0547 117.146 98.0456 117.288 98.0282 117.401C98.0161 117.514 97.9954 117.606 97.966 117.677C97.9365 117.742 97.8979 117.789 97.8507 117.819C97.8092 117.848 97.7619 117.863 97.7084 117.863H94.238V121.107H98.3741C98.4276 121.107 98.4748 121.124 98.5163 121.16C98.5636 121.189 98.6022 121.24 98.6316 121.311C98.661 121.382 98.6818 121.477 98.6938 121.595C98.7116 121.708 98.7203 121.85 98.7203 122.022ZM109.292 122.626C109.292 122.691 109.274 122.747 109.239 122.795C109.203 122.836 109.138 122.872 109.043 122.901C108.955 122.931 108.834 122.952 108.68 122.964C108.526 122.981 108.328 122.99 108.085 122.99C107.83 122.99 107.623 122.981 107.464 122.964C107.31 122.952 107.185 122.931 107.091 122.901C106.996 122.866 106.925 122.821 106.878 122.768C106.83 122.709 106.795 122.638 106.771 122.555L105.848 119.996C105.718 119.622 105.582 119.311 105.44 119.063C105.298 118.808 105.141 118.604 104.969 118.45C104.798 118.29 104.602 118.177 104.383 118.112C104.164 118.047 103.919 118.014 103.647 118.014H103.123V122.617C103.123 122.682 103.105 122.738 103.07 122.786C103.034 122.827 102.972 122.866 102.883 122.901C102.795 122.931 102.676 122.952 102.528 122.964C102.38 122.981 102.191 122.99 101.96 122.99C101.735 122.99 101.546 122.981 101.392 122.964C101.244 122.952 101.126 122.931 101.037 122.901C100.948 122.866 100.883 122.827 100.842 122.786C100.806 122.738 100.789 122.682 100.789 122.617V111.75C100.789 111.685 100.806 111.631 100.842 111.59C100.883 111.543 100.948 111.504 101.037 111.474C101.126 111.445 101.244 111.424 101.392 111.412C101.546 111.394 101.735 111.386 101.96 111.386C102.191 111.386 102.38 111.394 102.528 111.412C102.676 111.424 102.795 111.445 102.883 111.474C102.972 111.504 103.034 111.543 103.07 111.59C103.105 111.631 103.123 111.685 103.123 111.75V116.068H103.647C103.913 116.068 104.147 116.033 104.348 115.962C104.549 115.891 104.73 115.778 104.889 115.624C105.055 115.47 105.203 115.272 105.333 115.029C105.469 114.78 105.599 114.475 105.724 114.114L106.496 111.821C106.526 111.738 106.561 111.67 106.603 111.616C106.644 111.557 106.709 111.513 106.798 111.483C106.893 111.448 107.014 111.424 107.162 111.412C107.316 111.394 107.52 111.386 107.774 111.386C108.005 111.386 108.194 111.394 108.342 111.412C108.496 111.424 108.615 111.445 108.697 111.474C108.786 111.498 108.845 111.534 108.875 111.581C108.904 111.623 108.919 111.676 108.919 111.741C108.919 111.818 108.904 111.913 108.875 112.025C108.851 112.138 108.807 112.286 108.742 112.47L107.97 114.513C107.827 114.892 107.686 115.215 107.543 115.482C107.401 115.749 107.25 115.976 107.091 116.166C106.937 116.35 106.771 116.501 106.594 116.619C106.422 116.738 106.23 116.835 106.017 116.912V116.921C106.253 117.022 106.466 117.138 106.656 117.268C106.851 117.392 107.032 117.552 107.197 117.748C107.369 117.943 107.532 118.183 107.686 118.467C107.839 118.752 107.996 119.101 108.156 119.516L109.097 121.897C109.191 122.14 109.248 122.309 109.265 122.404C109.283 122.492 109.292 122.567 109.292 122.626ZM118.532 112.399C118.532 112.57 118.523 112.718 118.506 112.843C118.494 112.961 118.473 113.059 118.444 113.136C118.414 113.207 118.376 113.26 118.328 113.296C118.287 113.331 118.24 113.349 118.186 113.349H115.31V122.617C115.31 122.676 115.29 122.73 115.248 122.777C115.212 122.824 115.15 122.863 115.061 122.892C114.973 122.922 114.852 122.946 114.698 122.964C114.55 122.981 114.364 122.99 114.139 122.99C113.914 122.99 113.724 122.981 113.571 122.964C113.422 122.946 113.304 122.922 113.216 122.892C113.127 122.863 113.062 122.824 113.02 122.777C112.985 122.73 112.967 122.676 112.967 122.617V113.349H110.091C110.032 113.349 109.981 113.331 109.94 113.296C109.899 113.26 109.863 113.207 109.833 113.136C109.804 113.059 109.78 112.961 109.763 112.843C109.75 112.718 109.745 112.57 109.745 112.399C109.745 112.221 109.75 112.07 109.763 111.945C109.78 111.821 109.804 111.723 109.833 111.652C109.863 111.575 109.899 111.522 109.94 111.492C109.981 111.457 110.032 111.439 110.091 111.439H118.186C118.24 111.439 118.287 111.457 118.328 111.492C118.376 111.522 118.414 111.575 118.444 111.652C118.473 111.723 118.494 111.821 118.506 111.945C118.523 112.07 118.532 112.221 118.532 112.399ZM128.855 122.617C128.855 122.676 128.835 122.73 128.793 122.777C128.758 122.824 128.696 122.863 128.607 122.892C128.518 122.922 128.4 122.946 128.252 122.964C128.104 122.981 127.918 122.99 127.692 122.99C127.462 122.99 127.269 122.981 127.116 122.964C126.968 122.946 126.849 122.922 126.761 122.892C126.678 122.863 126.616 122.824 126.574 122.777C126.539 122.73 126.521 122.676 126.521 122.617V117.97H122.225V122.617C122.225 122.676 122.207 122.73 122.172 122.777C122.136 122.824 122.074 122.863 121.985 122.892C121.896 122.922 121.778 122.946 121.63 122.964C121.482 122.981 121.293 122.99 121.062 122.99C120.837 122.99 120.648 122.981 120.494 122.964C120.346 122.946 120.228 122.922 120.139 122.892C120.05 122.863 119.985 122.824 119.944 122.777C119.908 122.73 119.89 122.676 119.89 122.617V111.759C119.89 111.699 119.908 111.646 119.944 111.599C119.985 111.552 120.05 111.513 120.139 111.483C120.228 111.454 120.346 111.43 120.494 111.412C120.648 111.394 120.837 111.386 121.062 111.386C121.293 111.386 121.482 111.394 121.63 111.412C121.778 111.43 121.896 111.454 121.985 111.483C122.074 111.513 122.136 111.552 122.172 111.599C122.207 111.646 122.225 111.699 122.225 111.759V115.979H126.521V111.759C126.521 111.699 126.539 111.646 126.574 111.599C126.616 111.552 126.678 111.513 126.761 111.483C126.849 111.454 126.968 111.43 127.116 111.412C127.269 111.394 127.462 111.386 127.692 111.386C127.918 111.386 128.104 111.394 128.252 111.412C128.4 111.43 128.518 111.454 128.607 111.483C128.696 111.513 128.758 111.552 128.793 111.599C128.835 111.646 128.855 111.699 128.855 111.759V122.617ZM143.368 122.635C143.368 122.694 143.348 122.747 143.306 122.795C143.271 122.836 143.208 122.872 143.12 122.901C143.031 122.931 142.91 122.952 142.756 122.964C142.608 122.981 142.422 122.99 142.196 122.99C141.972 122.99 141.785 122.981 141.637 122.964C141.489 122.952 141.368 122.931 141.273 122.901C141.184 122.872 141.119 122.836 141.078 122.795C141.043 122.747 141.025 122.694 141.025 122.635V111.741C141.025 111.682 141.043 111.631 141.078 111.59C141.119 111.543 141.184 111.504 141.273 111.474C141.368 111.445 141.489 111.424 141.637 111.412C141.791 111.394 141.977 111.386 142.196 111.386C142.422 111.386 142.608 111.394 142.756 111.412C142.91 111.424 143.031 111.445 143.12 111.474C143.208 111.504 143.271 111.543 143.306 111.59C143.348 111.631 143.368 111.682 143.368 111.741V122.635ZM139.631 119.143C139.631 119.688 139.545 120.188 139.374 120.645C139.208 121.095 138.945 121.489 138.584 121.826C138.223 122.164 137.75 122.434 137.164 122.635C136.584 122.836 135.791 122.937 134.785 122.937H132.077C131.977 122.937 131.882 122.925 131.793 122.901C131.711 122.872 131.637 122.827 131.571 122.768C131.506 122.703 131.453 122.626 131.412 122.537C131.376 122.442 131.359 122.33 131.359 122.199V111.741C131.359 111.682 131.376 111.631 131.412 111.59C131.453 111.543 131.518 111.504 131.607 111.474C131.702 111.445 131.823 111.424 131.971 111.412C132.125 111.394 132.311 111.386 132.53 111.386C132.761 111.386 132.95 111.394 133.098 111.412C133.246 111.424 133.365 111.445 133.453 111.474C133.542 111.504 133.604 111.543 133.64 111.59C133.675 111.631 133.693 111.682 133.693 111.741V115.713H135.14C135.998 115.713 136.681 115.787 137.19 115.935C137.705 116.083 138.14 116.302 138.495 116.593C138.856 116.883 139.134 117.244 139.329 117.677C139.53 118.109 139.631 118.598 139.631 119.143ZM137.235 119.338C137.235 119.054 137.193 118.799 137.111 118.574C137.028 118.349 136.9 118.156 136.729 117.997C136.557 117.836 136.338 117.712 136.072 117.623C135.805 117.535 135.412 117.49 134.891 117.49H133.693V121.142H134.927C135.471 121.142 135.88 121.089 136.152 120.982C136.43 120.87 136.646 120.727 136.8 120.556C136.954 120.378 137.063 120.182 137.128 119.969C137.199 119.756 137.235 119.546 137.235 119.338ZM155.227 122.635C155.227 122.694 155.206 122.747 155.165 122.795C155.129 122.836 155.067 122.872 154.978 122.901C154.89 122.931 154.768 122.952 154.615 122.964C154.467 122.981 154.28 122.99 154.055 122.99C153.83 122.99 153.641 122.981 153.487 122.964C153.339 122.952 153.221 122.931 153.132 122.901C153.049 122.872 152.99 122.836 152.954 122.795C152.919 122.747 152.901 122.694 152.901 122.635V116.575C152.901 116.344 152.904 116.118 152.91 115.9C152.916 115.674 152.925 115.476 152.937 115.304H152.919C152.872 115.387 152.815 115.485 152.75 115.597C152.685 115.704 152.614 115.82 152.537 115.944C152.466 116.062 152.39 116.187 152.307 116.317C152.224 116.441 152.141 116.563 152.058 116.681L148.064 122.644C148.016 122.709 147.966 122.765 147.913 122.813C147.866 122.86 147.801 122.898 147.718 122.928C147.64 122.952 147.543 122.967 147.425 122.972C147.312 122.984 147.164 122.99 146.981 122.99C146.75 122.99 146.563 122.981 146.422 122.964C146.28 122.952 146.167 122.931 146.084 122.901C146.007 122.872 145.954 122.833 145.924 122.786C145.895 122.738 145.88 122.682 145.88 122.617V111.741C145.88 111.682 145.898 111.631 145.933 111.59C145.975 111.543 146.04 111.504 146.129 111.474C146.223 111.445 146.345 111.424 146.493 111.412C146.641 111.394 146.827 111.386 147.052 111.386C147.283 111.386 147.472 111.394 147.62 111.412C147.768 111.424 147.886 111.445 147.975 111.474C148.064 111.504 148.126 111.543 148.161 111.59C148.197 111.631 148.214 111.682 148.214 111.741V117.836C148.214 118.026 148.212 118.227 148.206 118.441C148.2 118.654 148.191 118.861 148.179 119.063H148.197C148.297 118.885 148.425 118.672 148.579 118.423C148.732 118.174 148.892 117.931 149.058 117.694L153.052 111.732C153.094 111.673 153.138 111.623 153.185 111.581C153.233 111.534 153.295 111.495 153.372 111.466C153.455 111.436 153.555 111.415 153.674 111.403C153.792 111.391 153.943 111.386 154.126 111.386C154.351 111.386 154.532 111.394 154.668 111.412C154.81 111.424 154.922 111.445 155.005 111.474C155.088 111.504 155.144 111.543 155.174 111.59C155.209 111.631 155.227 111.685 155.227 111.75V122.635ZM153.869 108.356C153.869 108.681 153.812 108.996 153.7 109.297C153.588 109.594 153.404 109.857 153.15 110.088C152.901 110.313 152.57 110.494 152.156 110.63C151.748 110.767 151.244 110.835 150.647 110.835C150.067 110.835 149.573 110.772 149.164 110.648C148.756 110.524 148.422 110.355 148.161 110.142C147.907 109.923 147.721 109.662 147.602 109.36C147.484 109.052 147.425 108.717 147.425 108.356C147.425 108.267 147.439 108.195 147.469 108.142C147.504 108.083 147.561 108.036 147.638 108C147.715 107.965 147.818 107.941 147.948 107.929C148.084 107.912 148.253 107.902 148.454 107.902C148.644 107.902 148.8 107.912 148.925 107.929C149.049 107.947 149.143 107.973 149.209 108.009C149.274 108.045 149.318 108.092 149.342 108.151C149.372 108.205 149.386 108.27 149.386 108.347C149.386 108.489 149.413 108.622 149.466 108.746C149.525 108.871 149.608 108.981 149.715 109.075C149.827 109.164 149.963 109.238 150.123 109.297C150.283 109.357 150.46 109.386 150.656 109.386C150.845 109.386 151.016 109.36 151.17 109.306C151.324 109.247 151.454 109.173 151.561 109.084C151.673 108.989 151.756 108.88 151.809 108.756C151.869 108.625 151.898 108.483 151.898 108.329C151.898 108.258 151.91 108.195 151.934 108.142C151.957 108.089 152.002 108.045 152.067 108.009C152.138 107.973 152.229 107.947 152.342 107.929C152.46 107.912 152.609 107.902 152.786 107.902C152.999 107.902 153.173 107.912 153.309 107.929C153.452 107.941 153.564 107.965 153.647 108C153.73 108.036 153.786 108.083 153.815 108.142C153.851 108.195 153.869 108.267 153.869 108.356Z" fill="#EEEAC5"/>
<path d="M97.6429 134.041C97.6429 134.717 97.5541 135.333 97.3766 135.89C97.1991 136.446 96.93 136.926 96.5687 137.329C96.2079 137.732 95.755 138.043 95.2109 138.262C94.6664 138.482 94.0302 138.591 93.3023 138.591C92.5981 138.591 91.9856 138.493 91.4651 138.298C90.9442 138.103 90.5125 137.818 90.1691 137.445C89.8257 137.072 89.5714 136.613 89.4055 136.067C89.2401 135.523 89.1571 134.9 89.1571 134.202C89.1571 133.526 89.2459 132.91 89.4234 132.353C89.6067 131.79 89.8792 131.311 90.24 130.914C90.6012 130.511 91.0508 130.2 91.5891 129.981C92.1336 129.762 92.7698 129.652 93.4977 129.652C94.2077 129.652 94.8232 129.75 95.344 129.945C95.8645 130.135 96.2938 130.416 96.631 130.789C96.9743 131.163 97.2286 131.622 97.3945 132.167C97.5599 132.712 97.6429 133.337 97.6429 134.041ZM95.344 134.131C95.344 133.74 95.3113 133.381 95.2462 133.055C95.1873 132.724 95.0836 132.436 94.9355 132.194C94.7875 131.951 94.5892 131.761 94.3408 131.625C94.0982 131.489 93.7905 131.42 93.4176 131.42C93.0863 131.42 92.7964 131.483 92.5479 131.607C92.2995 131.726 92.0951 131.903 91.9354 132.14C91.7757 132.371 91.6542 132.653 91.5717 132.984C91.4945 133.31 91.456 133.683 91.456 134.104C91.456 134.495 91.4887 134.856 91.5538 135.188C91.619 135.514 91.7222 135.798 91.8645 136.041C92.0125 136.284 92.2108 136.473 92.4592 136.61C92.7076 136.74 93.0153 136.805 93.3824 136.805C93.7196 136.805 94.0124 136.746 94.2612 136.627C94.5096 136.503 94.7137 136.325 94.8733 136.094C95.0334 135.863 95.1516 135.585 95.2283 135.259C95.3055 134.927 95.344 134.551 95.344 134.131ZM109.99 134.059C109.99 134.711 109.892 135.306 109.697 135.845C109.502 136.378 109.215 136.843 108.836 137.24C108.457 137.631 107.99 137.945 107.433 138.182C106.883 138.413 106.256 138.55 105.552 138.591V141.23C105.552 141.289 105.534 141.342 105.498 141.39C105.463 141.438 105.404 141.476 105.321 141.506C105.238 141.541 105.123 141.568 104.975 141.585C104.833 141.603 104.655 141.612 104.442 141.612C104.223 141.612 104.043 141.603 103.901 141.585C103.758 141.568 103.643 141.541 103.554 141.506C103.471 141.476 103.413 141.438 103.377 141.39C103.341 141.342 103.324 141.289 103.324 141.23V138.591C102.602 138.561 101.963 138.443 101.407 138.236C100.856 138.022 100.395 137.729 100.022 137.356C99.6489 136.983 99.3648 136.529 99.1695 135.996C98.9804 135.463 98.8854 134.862 98.8854 134.193C98.8854 133.541 98.9833 132.946 99.1786 132.407C99.3798 131.868 99.6697 131.403 100.048 131.012C100.427 130.615 100.891 130.301 101.442 130.07C101.992 129.833 102.62 129.693 103.324 129.652V126.791C103.324 126.732 103.341 126.679 103.377 126.631C103.413 126.584 103.471 126.545 103.554 126.515C103.643 126.48 103.758 126.453 103.901 126.436C104.043 126.418 104.223 126.409 104.442 126.409C104.655 126.409 104.833 126.418 104.975 126.436C105.123 126.453 105.238 126.48 105.321 126.515C105.404 126.545 105.463 126.584 105.498 126.631C105.534 126.679 105.552 126.732 105.552 126.791V129.652C106.28 129.682 106.919 129.803 107.469 130.016C108.025 130.23 108.49 130.523 108.863 130.896C109.235 131.269 109.517 131.722 109.706 132.256C109.895 132.789 109.99 133.39 109.99 134.059ZM107.709 134.148C107.709 133.349 107.54 132.717 107.203 132.256C106.871 131.787 106.321 131.512 105.552 131.429V136.805C106.244 136.752 106.776 136.506 107.149 136.067C107.522 135.623 107.709 134.983 107.709 134.148ZM103.324 131.438C102.631 131.491 102.099 131.737 101.726 132.176C101.353 132.608 101.167 133.251 101.167 134.104C101.167 134.495 101.205 134.85 101.282 135.17C101.365 135.484 101.492 135.756 101.664 135.988C101.835 136.213 102.057 136.396 102.33 136.539C102.602 136.681 102.933 136.772 103.324 136.814V131.438ZM119.585 138.111C119.585 138.171 119.568 138.221 119.532 138.262C119.502 138.304 119.446 138.339 119.363 138.369C119.281 138.393 119.168 138.41 119.026 138.422C118.89 138.434 118.715 138.44 118.502 138.44C118.289 138.44 118.109 138.434 117.961 138.422C117.819 138.41 117.7 138.393 117.606 138.369C117.517 138.339 117.452 138.304 117.411 138.262C117.375 138.221 117.357 138.171 117.357 138.111V134.575C117.357 134.326 117.363 134.068 117.375 133.802C117.393 133.535 117.416 133.275 117.446 133.02C117.304 133.268 117.15 133.515 116.984 133.757C116.819 133.994 116.65 134.231 116.478 134.468L113.807 138.103C113.753 138.167 113.703 138.224 113.656 138.271C113.608 138.313 113.546 138.348 113.469 138.378C113.398 138.401 113.307 138.416 113.194 138.422C113.082 138.434 112.937 138.44 112.759 138.44C112.546 138.44 112.372 138.434 112.236 138.422C112.105 138.41 111.999 138.393 111.916 138.369C111.839 138.339 111.783 138.304 111.747 138.262C111.718 138.215 111.703 138.161 111.703 138.103V130.15C111.703 130.097 111.718 130.049 111.747 130.008C111.783 129.96 111.842 129.922 111.925 129.892C112.014 129.862 112.126 129.842 112.262 129.83C112.404 129.812 112.582 129.803 112.795 129.803C113.215 129.803 113.511 129.833 113.683 129.892C113.854 129.951 113.94 130.037 113.94 130.15V133.669C113.94 133.911 113.931 134.163 113.913 134.424C113.895 134.685 113.872 134.936 113.842 135.179C113.984 134.942 114.129 134.708 114.277 134.477C114.425 134.24 114.582 134.012 114.748 133.793L117.446 130.15C117.493 130.085 117.544 130.031 117.597 129.99C117.65 129.943 117.715 129.907 117.792 129.883C117.875 129.854 117.972 129.833 118.085 129.821C118.203 129.809 118.354 129.803 118.538 129.803C118.745 129.803 118.916 129.809 119.052 129.821C119.188 129.833 119.295 129.854 119.372 129.883C119.455 129.913 119.511 129.951 119.541 129.999C119.57 130.046 119.585 130.099 119.585 130.159V138.111ZM127.814 136.823C127.814 136.977 127.807 137.107 127.796 137.214C127.79 137.315 127.778 137.401 127.76 137.471C127.748 137.542 127.731 137.602 127.707 137.649C127.689 137.691 127.645 137.747 127.574 137.818C127.503 137.883 127.381 137.966 127.21 138.067C127.038 138.161 126.843 138.247 126.624 138.325C126.405 138.401 126.165 138.464 125.905 138.511C125.651 138.558 125.387 138.582 125.115 138.582C124.506 138.582 123.964 138.487 123.491 138.298C123.023 138.108 122.629 137.83 122.31 137.463C121.991 137.09 121.748 136.636 121.582 136.103C121.423 135.57 121.343 134.96 121.343 134.273C121.343 133.479 121.44 132.795 121.635 132.22C121.837 131.64 122.115 131.16 122.47 130.781C122.825 130.402 123.245 130.12 123.73 129.936C124.215 129.753 124.748 129.661 125.328 129.661C125.565 129.661 125.796 129.682 126.02 129.723C126.251 129.765 126.464 129.821 126.659 129.892C126.861 129.963 127.038 130.043 127.192 130.132C127.352 130.221 127.464 130.298 127.529 130.363C127.595 130.428 127.639 130.484 127.663 130.532C127.692 130.573 127.713 130.63 127.725 130.701C127.742 130.772 127.754 130.86 127.76 130.967C127.772 131.068 127.778 131.192 127.778 131.34C127.778 131.684 127.748 131.927 127.689 132.069C127.63 132.205 127.553 132.273 127.459 132.273C127.358 132.273 127.251 132.232 127.139 132.149C127.026 132.066 126.893 131.974 126.739 131.873C126.586 131.773 126.402 131.681 126.189 131.598C125.976 131.515 125.722 131.474 125.426 131.474C124.846 131.474 124.402 131.699 124.094 132.149C123.787 132.593 123.633 133.248 123.633 134.113C123.633 134.539 123.671 134.915 123.748 135.241C123.825 135.567 123.938 135.839 124.086 136.059C124.239 136.278 124.429 136.444 124.653 136.556C124.884 136.663 125.151 136.716 125.453 136.716C125.76 136.716 126.023 136.672 126.242 136.583C126.467 136.488 126.662 136.385 126.828 136.272C126.994 136.159 127.133 136.059 127.245 135.97C127.358 135.875 127.452 135.827 127.529 135.827C127.583 135.827 127.627 135.842 127.663 135.872C127.698 135.902 127.725 135.958 127.742 136.041C127.766 136.118 127.784 136.219 127.796 136.343C127.807 136.467 127.814 136.627 127.814 136.823Z" fill="#EEEAC5"/>
<mask id="mask8_1_126" style="mask-type:luminance" maskUnits="userSpaceOnUse" x="-22" y="0" width="236" height="236">
<path d="M-21.1512 0H213.971V235.368H-21.1512V0Z" fill="white"/>
</mask>
<g mask="url(#mask8_1_126)">
<path d="M187.216 167.469H13.9117V162.97H187.216V167.469Z" fill="#2D2C2C"/>
</g>
</g>
<defs>
<radialGradient id="paint0_radial_1_126" cx="0" cy="0" r="1" gradientUnits="userSpaceOnUse" gradientTransform="translate(106.676 100.089) scale(42.3517 42.396)">
<stop stop-color="#EAEAEA"/>
<stop offset="0.0620812" stop-color="#EAEAEA"/>
<stop offset="0.176926" stop-color="#E3E1D4"/>
<stop offset="0.202513" stop-color="#CCD7D1"/>
<stop offset="0.304282" stop-color="#CCD7D1"/>
<stop offset="0.347664" stop-color="#CCD7D1"/>
<stop offset="0.388021" stop-color="#C6C7B9"/>
<stop offset="0.396619" stop-color="#C6C7B9"/>
<stop offset="0.894472" stop-color="#414242" stop-opacity="0"/>
</radialGradient>
<linearGradient id="paint1_linear_1_126" x1="13.9113" y1="159.93" x2="187.216" y2="159.93" gradientUnits="userSpaceOnUse">
<stop stop-color="white"/>
<stop offset="0.0442708" stop-color="white"/>
<stop offset="0.310201" stop-color="white"/>
<stop offset="0.549479" stop-color="white" stop-opacity="0.900008"/>
<stop offset="0.805982" stop-color="white"/>
<stop offset="0.864924" stop-color="white"/>
<stop offset="0.940914" stop-color="white"/>
<stop offset="1" stop-color="white"/>
</linearGradient>
<linearGradient id="paint2_linear_1_126" x1="13.9121" y1="159.931" x2="187.217" y2="159.931" gradientUnits="userSpaceOnUse">
<stop stop-color="#1D1D1B"/>
<stop offset="0.0442708" stop-color="#1D1D1B"/>
<stop offset="0.310201" stop-color="#1D1D1B"/>
<stop offset="0.549479" stop-color="#EAECA8"/>
<stop offset="0.805982" stop-color="#1D1D1B"/>
<stop offset="0.864924" stop-color="#1D1D1B"/>
<stop offset="0.940914" stop-color="#1D1D1B"/>
<stop offset="1" stop-color="#1D1D1B"/>
</linearGradient>
<linearGradient id="paint3_linear_1_126" x1="47.6789" y1="-98.0937" x2="47.6789" y2="-58.0289" gradientUnits="userSpaceOnUse">
<stop stop-color="#30302F"/>
<stop offset="0.0963542" stop-color="#30302F"/>
<stop offset="0.146108" stop-color="#30302F"/>
<stop offset="0.335937" stop-color="#828281"/>
<stop offset="0.655081" stop-color="#D1D1D1"/>
<stop offset="0.977806" stop-color="#D1D1D1"/>
<stop offset="0.990292" stop-color="#D1D1D1"/>
<stop offset="1" stop-color="#D1D1D1"/>
</linearGradient>
<linearGradient id="paint4_linear_1_126" x1="40.1916" y1="-206.345" x2="89.2612" y2="-206.345" gradientUnits="userSpaceOnUse">
<stop stop-color="#30302F"/>
<stop offset="0.0182292" stop-color="#30302F"/>
<stop offset="0.118324" stop-color="#30302F"/>
<stop offset="0.523437" stop-color="#3C3C3B"/>
<stop offset="0.561938" stop-color="#3C3C3B"/>
<stop offset="0.977806" stop-color="#575756"/>
<stop offset="0.990292" stop-color="#575756"/>
<stop offset="1" stop-color="#575756"/>
</linearGradient>
<linearGradient id="paint5_linear_1_126" x1="43.3246" y1="-203.2" x2="89.8692" y2="-203.2" gradientUnits="userSpaceOnUse">
<stop stop-color="#30302F"/>
<stop offset="0.0182292" stop-color="#30302F"/>
<stop offset="0.106974" stop-color="#30302F"/>
<stop offset="0.466146" stop-color="#828281"/>
<stop offset="0.671346" stop-color="#868686"/>
<stop offset="0.977806" stop-color="#868686"/>
<stop offset="0.990292" stop-color="#868686"/>
<stop offset="1" stop-color="#868686"/>
</linearGradient>
<linearGradient id="paint6_linear_1_126" x1="107.138" y1="94.657" x2="107.138" y2="72.3566" gradientUnits="userSpaceOnUse">
<stop stop-color="#F2A100"/>
<stop offset="0.186732" stop-color="#F2CA00"/>
<stop offset="0.466146" stop-color="#F2CA00"/>
<stop offset="0.75052" stop-color="#F2CA00"/>
<stop offset="0.945312" stop-color="#FC890D"/>
<stop offset="0.959806" stop-color="#FC890D"/>
<stop offset="1" stop-color="#FC890D"/>
</linearGradient>
<linearGradient id="paint7_linear_1_126" x1="100.346" y1="71.1663" x2="113.75" y2="71.1663" gradientUnits="userSpaceOnUse">
<stop stop-color="#D9D9D9"/>
<stop offset="2.5e-07" stop-color="#D9D9D9"/>
<stop offset="0.856854" stop-color="#6F6F6E"/>
<stop offset="1" stop-color="#6F6F6E"/>
</linearGradient>
<linearGradient id="paint8_linear_1_126" x1="101.179" y1="66.5422" x2="112.992" y2="66.5422" gradientUnits="userSpaceOnUse">
<stop stop-color="#D9D9D9"/>
<stop offset="2.5e-07" stop-color="#D9D9D9"/>
<stop offset="0.856854" stop-color="#6F6F6E"/>
<stop offset="1" stop-color="#6F6F6E"/>
</linearGradient>
<linearGradient id="paint9_linear_1_126" x1="88.4222" y1="-185.12" x2="107.31" y2="-185.12" gradientUnits="userSpaceOnUse">
<stop stop-color="#30302F"/>
<stop offset="0.0182292" stop-color="#30302F"/>
<stop offset="0.118324" stop-color="#30302F"/>
<stop offset="0.523437" stop-color="#3C3C3B"/>
<stop offset="0.561938" stop-color="#3C3C3B"/>
<stop offset="0.977806" stop-color="#575756"/>
<stop offset="0.990292" stop-color="#575756"/>
<stop offset="1" stop-color="#575756"/>
</linearGradient>
<linearGradient id="paint10_linear_1_126" x1="43.9322" y1="143.837" x2="54.8222" y2="143.837" gradientUnits="userSpaceOnUse">
<stop stop-color="#1D1D1B"/>
<stop offset="0.0929648" stop-color="#1D1D1B"/>
<stop offset="0.409548" stop-color="#3A3938"/>
<stop offset="0.58501" stop-color="#3A3938"/>
<stop offset="0.836683" stop-color="#848483"/>
<stop offset="0.928561" stop-color="#848483"/>
<stop offset="1" stop-color="#848483"/>
</linearGradient>
<linearGradient id="paint11_linear_1_126" x1="30.9277" y1="154.998" x2="64.6512" y2="154.998" gradientUnits="userSpaceOnUse">
<stop stop-color="#363635"/>
<stop offset="0.170854" stop-color="#363635"/>
<stop offset="0.429648" stop-color="#8F8F8E"/>
<stop offset="0.640703" stop-color="#BDBDBD"/>
<stop offset="0.899498" stop-color="white"/>
<stop offset="1" stop-color="white"/>
</linearGradient>
<linearGradient id="paint12_linear_1_126" x1="30.9277" y1="158.452" x2="64.6512" y2="158.452" gradientUnits="userSpaceOnUse">
<stop stop-color="#1D1D1B"/>
<stop offset="0.0929648" stop-color="#1D1D1B"/>
<stop offset="0.611979" stop-color="#3A3938"/>
<stop offset="0.704285" stop-color="#3A3938"/>
<stop offset="0.836683" stop-color="#848483"/>
<stop offset="0.928561" stop-color="#848483"/>
<stop offset="1" stop-color="#848483"/>
</linearGradient>
<clipPath id="clip0_1_126">
<rect width="214" height="230" fill="white"/>
</clipPath>
</defs>
</svg>
